FILE "Mutation Nation (1995)(SNK)(en-ja).img" BINARY
  TRACK 01 MODE1/2352
    FLAGS DCP
    INDEX 01 00:00:00
  TRACK 02 AUDIO
    PREGAP 00:02:00
    FLAGS DCP
    INDEX 00 00:52:43
    INDEX 01 00:53:43
  TRACK 03 AUDIO
    FLAGS DCP
    INDEX 01 04:11:03
  TRACK 04 AUDIO
    FLAGS DCP
    INDEX 01 07:25:39
  TRACK 05 AUDIO
    FLAGS DCP
    INDEX 01 07:39:46
  TRACK 06 AUDIO
    FLAGS DCP
    INDEX 01 09:06:57
  TRACK 07 AUDIO
    FLAGS DCP
    INDEX 01 14:30:03
  TRACK 08 AUDIO
    FLAGS DCP
    INDEX 01 19:47:04
  TRACK 09 AUDIO
    FLAGS DCP
    INDEX 01 25:00:03
  TRACK 10 AUDIO
    FLAGS DCP
    INDEX 01 30:20:33
  TRACK 11 AUDIO
    FLAGS DCP
    INDEX 01 35:35:68
  TRACK 12 AUDIO
    FLAGS DCP
    INDEX 01 36:12:58
  TRACK 13 AUDIO
    FLAGS DCP
    INDEX 01 36:24:42
  TRACK 14 AUDIO
    FLAGS DCP
    INDEX 01 39:38:56
  TRACK 15 AUDIO
    FLAGS DCP
    INDEX 01 42:54:31
  TRACK 16 AUDIO
    FLAGS DCP
    INDEX 01 48:19:47
  TRACK 17 AUDIO
    FLAGS DCP
    INDEX 01 48:32:68
  TRACK 18 AUDIO
    FLAGS DCP
    INDEX 01 48:52:69
  TRACK 19 AUDIO
    FLAGS DCP
    INDEX 01 51:23:26
  TRACK 20 AUDIO
    FLAGS DCP
    INDEX 01 51:37:73
  TRACK 21 AUDIO
    FLAGS DCP
    INDEX 01 52:19:23
  TRACK 22 AUDIO
    FLAGS DCP
    INDEX 01 52:31:57
  TRACK 23 AUDIO
    FLAGS DCP
    INDEX 01 52:46:55
  TRACK 24 AUDIO
    FLAGS DCP
    INDEX 01 53:00:05
  TRACK 25 AUDIO
    FLAGS DCP
    INDEX 01 53:22:21
